<svg width="359" height="253" viewBox="0 0 359 253" fill="none" xmlns="http://www.w3.org/2000/svg">
<path d="M358.5 253C298.959 253 241.856 239.672 199.755 215.949C157.653 192.226 134 160.05 134 126.5C134 92.9501 157.653 60.7744 199.755 37.051C241.856 13.3277 298.959 3.39322e-05 358.5 3.43323e-05V126.5L358.5 253Z" fill="white"/>
<path d="M117.5 253C86.3371 253 56.4505 239.672 34.415 215.949C12.3794 192.226 -8.66895e-07 160.05 0 126.5C8.66895e-07 92.9501 12.3794 60.7743 34.415 37.051C56.4505 13.3276 86.3371 -4.00078e-07 117.5 0V126.5L117.5 253Z" fill="white"/>
</svg>
