<svg width="25" height="22" viewBox="0 0 25 22" fill="none" xmlns="http://www.w3.org/2000/svg">
<path d="M12.5 15.5336C13.7371 15.5336 14.7869 15.0936 15.6494 14.2136C16.5119 13.3336 16.9432 12.2625 16.9432 11.0003C16.9432 9.73804 16.5119 8.66693 15.6494 7.78693C14.7869 6.90693 13.7371 6.46693 12.5 6.46693C11.2629 6.46693 10.2131 6.90693 9.35057 7.78693C8.48807 8.66693 8.05682 9.73804 8.05682 11.0003C8.05682 12.2625 8.48807 13.3336 9.35057 14.2136C10.2131 15.0936 11.2629 15.5336 12.5 15.5336ZM12.5 13.9869C11.6811 13.9869 10.9884 13.698 10.4222 13.1203C9.85587 12.5425 9.57273 11.8358 9.57273 11.0003C9.57273 10.1647 9.85587 9.45804 10.4222 8.88026C10.9884 8.30248 11.6811 8.01359 12.5 8.01359C13.3189 8.01359 14.0116 8.30248 14.5778 8.88026C15.1441 9.45804 15.4273 10.1647 15.4273 11.0003C15.4273 11.8358 15.1441 12.5425 14.5778 13.1203C14.0116 13.698 13.3189 13.9869 12.5 13.9869ZM12.5 19.0003C9.95606 19.0003 7.65606 18.2625 5.6 16.7869C3.54394 15.3114 2.01061 13.3825 1 11.0003C2.01061 8.61804 3.54394 6.68915 5.6 5.21359C7.65606 3.73804 9.95606 3.00026 12.5 3.00026C15.0439 3.00026 17.3439 3.73804 19.4 5.21359C21.4561 6.68915 22.9894 8.61804 24 11.0003C22.9894 13.3825 21.4561 15.3114 19.4 16.7869C17.3439 18.2625 15.0439 19.0003 12.5 19.0003ZM12.5 17.4003C14.6083 17.4003 16.5468 16.818 18.3153 15.6536C20.0839 14.4891 21.4299 12.938 22.3534 11.0003C21.4299 9.06248 20.0839 7.51137 18.3153 6.34693C16.5468 5.18248 14.6083 4.60026 12.5 4.60026C10.3917 4.60026 8.45322 5.18248 6.68466 6.34693C4.9161 7.51137 3.56136 9.06248 2.62045 11.0003C3.56136 12.938 4.9161 14.4891 6.68466 15.6536C8.45322 16.818 10.3917 17.4003 12.5 17.4003Z" fill="#848C9C"/>
<rect x="0.294865" y="2.18486" width="2.49373" height="29.4875" rx="1.24686" transform="rotate(-49.2795 0.294865 2.18486)" fill="#848C9C" stroke="white"/>
</svg>
