<svg width="23" height="16" viewBox="0 0 23 16" fill="none" xmlns="http://www.w3.org/2000/svg">
<path d="M11.5 12.5333C12.7371 12.5333 13.7869 12.0933 14.6494 11.2133C15.5119 10.3333 15.9432 9.26222 15.9432 8C15.9432 6.73778 15.5119 5.66667 14.6494 4.78667C13.7869 3.90667 12.7371 3.46667 11.5 3.46667C10.2629 3.46667 9.21307 3.90667 8.35057 4.78667C7.48807 5.66667 7.05682 6.73778 7.05682 8C7.05682 9.26222 7.48807 10.3333 8.35057 11.2133C9.21307 12.0933 10.2629 12.5333 11.5 12.5333ZM11.5 10.9867C10.6811 10.9867 9.98845 10.6978 9.42216 10.12C8.85587 9.54222 8.57273 8.83556 8.57273 8C8.57273 7.16444 8.85587 6.45778 9.42216 5.88C9.98845 5.30222 10.6811 5.01333 11.5 5.01333C12.3189 5.01333 13.0116 5.30222 13.5778 5.88C14.1441 6.45778 14.4273 7.16444 14.4273 8C14.4273 8.83556 14.1441 9.54222 13.5778 10.12C13.0116 10.6978 12.3189 10.9867 11.5 10.9867ZM11.5 16C8.95606 16 6.65606 15.2622 4.6 13.7867C2.54394 12.3111 1.01061 10.3822 0 8C1.01061 5.61778 2.54394 3.68889 4.6 2.21333C6.65606 0.737778 8.95606 0 11.5 0C14.0439 0 16.3439 0.737778 18.4 2.21333C20.4561 3.68889 21.9894 5.61778 23 8C21.9894 10.3822 20.4561 12.3111 18.4 13.7867C16.3439 15.2622 14.0439 16 11.5 16ZM11.5 14.4C13.6083 14.4 15.5468 13.8178 17.3153 12.6533C19.0839 11.4889 20.4299 9.93778 21.3534 8C20.4299 6.06222 19.0839 4.51111 17.3153 3.34667C15.5468 2.18222 13.6083 1.6 11.5 1.6C9.39167 1.6 7.45322 2.18222 5.68466 3.34667C3.9161 4.51111 2.56136 6.06222 1.62045 8C2.56136 9.93778 3.9161 11.4889 5.68466 12.6533C7.45322 13.8178 9.39167 14.4 11.5 14.4Z" fill="#848C9C"/>
</svg>
